<svg xmlns="http://www.w3.org/2000/svg" viewBox="0 0 736 920" width="736" height="920" fill="none">
  <rect width="736" height="920" fill="#000000"/>
  <path d="M 157 281 L 246 413 L 488 466 L 496 469 L 491 470 L 479 468 L 306 455 L 292 446 L 191 435 L 183 433 L 301 510 L 306 511 L 493 470 L 497 471 L 365 524 L 350 523 L 272 551 L 395 560 L 500 469 L 556 497 L 538 469 L 541 463 L 524 432 L 324 358 L 311 344 Z" fill="#FFFFFF"/>
  <circle cx="509" cy="544" r="16.5" stroke="#FFFFFF" stroke-width="2.5"/>
  <path d="M503 539 L503 545.5 C503 549 505.7 551.5 509 551.5 C512.3 551.5 515 549 515 545.5 L515 539"
        stroke="#FFFFFF" stroke-width="2.2" stroke-linecap="round" stroke-linejoin="round"/>
</svg>
